<svg xmlns="http://www.w3.org/2000/svg" xmlns:xlink="http://www.w3.org/1999/xlink" xmlns:lucid="lucid" width="1463" height="949"><g transform="translate(-152 -275)" lucid:page-tab-id="0_0"><path d="M1069.67 750c0 248.53-201.47 450-450 450s-450-201.47-450-450 201.47-450 450-450 450 201.47 450 450z" stroke="#3278cc" fill="#3278cc" fill-opacity=".4"/><path d="M1590.33 750c0 248.53-201.47 450-450 450s-450-201.47-450-450 201.47-450 450-450 450 201.47 450 450z" stroke="#58d8d9" fill="#58d8d9" fill-opacity=".4"/><path d="M1132.24 653.3h360v188.8h-360z" stroke="#000" stroke-opacity="0" fill="#fff" fill-opacity="0"/><use xlink:href="#a" transform="matrix(1,0,0,1,1137.0430039388584,658.0994536641484) translate(11.45061728395076 42.31111111111109)"/><use xlink:href="#b" transform="matrix(1,0,0,1,1137.0430039388584,658.0994536641484) translate(111.8086419753087 100.97777777777772)"/><use xlink:href="#c" transform="matrix(1,0,0,1,1137.0430039388584,658.0994536641484) translate(45.40123456790134 159.64444444444433)"/><path d="M752.24 682.63h240v130.14h-240z" stroke="#000" stroke-opacity="0" fill="#fff" fill-opacity="0"/><use xlink:href="#d" transform="matrix(1,0,0,1,757.0430039388586,687.4327869974818) translate(-34.901234567901085 42.54444444444446)"/><use xlink:href="#e" transform="matrix(1,0,0,1,757.0430039388586,687.4327869974818) translate(34.2222222222223 101.21111111111108)"/><path d="M252.24 665h340v170h-340z" stroke="#000" stroke-opacity="0" fill="#fff" fill-opacity="0"/><g><use xlink:href="#f" transform="matrix(1,0,0,1,257.04300393885865,669.8) translate(66.63580246913588 92.62361111111109)"/><use xlink:href="#g" transform="matrix(1,0,0,1,257.04300393885865,669.8) translate(158.70987654320987 92.62361111111109)"/></g><defs><path fill="#fff" d="M175 0L67-191c6 58 2 128 3 191H24v-248h59L193-55c-6-58-2-129-3-193h46V0h-61" id="h"/><path fill="#fff" d="M185-48c-13 30-37 53-82 52C43 2 14-33 14-96s30-98 90-98c62 0 83 45 84 108H66c0 31 8 55 39 56 18 0 30-7 34-22zm-45-69c5-46-57-63-70-21-2 6-4 13-4 21h74" id="i"/><path fill="#fff" d="M133-34C117-15 103 5 69 4 32 3 11-16 11-54c-1-60 55-63 116-61 1-26-3-47-28-47-18 1-26 9-28 27l-52-2c7-38 36-58 82-57s74 22 75 68l1 82c-1 14 12 18 25 15v27c-30 8-71 5-69-32zm-48 3c29 0 43-24 42-57-32 0-66-3-65 30 0 17 8 27 23 27" id="j"/><path fill="#fff" d="M135-150c-39-12-60 13-60 57V0H25l-1-190h47c2 13-1 29 3 40 6-28 27-53 61-41v41" id="k"/><path fill="#fff" d="M14-72v-43h91v43H14" id="l"/><path fill="#fff" d="M25 0v-261h50V0H25" id="m"/><path fill="#fff" d="M115-3C79 11 28 4 28-45v-112H4v-33h27l15-45h31v45h36v33H77v99c-1 23 16 31 38 25v30" id="n"/><path fill="#fff" d="M25-224v-37h50v37H25zM25 0v-190h50V0H25" id="o"/><path fill="#fff" d="M220-157c-53 9-28 100-34 157h-49v-107c1-27-5-49-29-50C55-147 81-57 75 0H25l-1-190h47c2 12-1 28 3 38 10-53 101-56 108 0 13-22 24-43 59-42 82 1 51 116 57 194h-49v-107c-1-25-5-48-29-50" id="p"/><g id="a"><use transform="matrix(0.13580246913580238,0,0,0.13580246913580238,0,0)" xlink:href="#h"/><use transform="matrix(0.13580246913580238,0,0,0.13580246913580238,35.172839506172814,0)" xlink:href="#i"/><use transform="matrix(0.13580246913580238,0,0,0.13580246913580238,62.333333333333286,0)" xlink:href="#j"/><use transform="matrix(0.13580246913580238,0,0,0.13580246913580238,89.49382716049377,0)" xlink:href="#k"/><use transform="matrix(0.13580246913580238,0,0,0.13580246913580238,108.50617283950608,0)" xlink:href="#l"/><use transform="matrix(0.13580246913580238,0,0,0.13580246913580238,124.66666666666657,0)" xlink:href="#k"/><use transform="matrix(0.13580246913580238,0,0,0.13580246913580238,143.6790123456789,0)" xlink:href="#i"/><use transform="matrix(0.13580246913580238,0,0,0.13580246913580238,170.83950617283938,0)" xlink:href="#j"/><use transform="matrix(0.13580246913580238,0,0,0.13580246913580238,197.99999999999986,0)" xlink:href="#m"/><use transform="matrix(0.13580246913580238,0,0,0.13580246913580238,211.58024691358008,0)" xlink:href="#l"/><use transform="matrix(0.13580246913580238,0,0,0.13580246913580238,227.74074074074056,0)" xlink:href="#n"/><use transform="matrix(0.13580246913580238,0,0,0.13580246913580238,243.90123456790104,0)" xlink:href="#o"/><use transform="matrix(0.13580246913580238,0,0,0.13580246913580238,257.4814814814813,0)" xlink:href="#p"/><use transform="matrix(0.13580246913580238,0,0,0.13580246913580238,300.93827160493805,0)" xlink:href="#i"/></g><path fill="#fff" d="M128 0H69L1-190h53L99-40l48-150h52" id="q"/><path fill="#fff" d="M135-194c87-1 58 113 63 194h-50c-7-57 23-157-34-157-59 0-34 97-39 157H25l-1-190h47c2 12-1 28 3 38 12-26 28-41 61-42" id="r"/><g id="b"><use transform="matrix(0.13580246913580238,0,0,0.13580246913580238,0,0)" xlink:href="#i"/><use transform="matrix(0.13580246913580238,0,0,0.13580246913580238,27.160493827160476,0)" xlink:href="#q"/><use transform="matrix(0.13580246913580238,0,0,0.13580246913580238,54.32098765432095,0)" xlink:href="#i"/><use transform="matrix(0.13580246913580238,0,0,0.13580246913580238,81.48148148148142,0)" xlink:href="#r"/><use transform="matrix(0.13580246913580238,0,0,0.13580246913580238,111.22222222222214,0)" xlink:href="#n"/></g><path fill="#fff" d="M135-194c53 0 70 44 70 98 0 56-19 98-73 100-31 1-45-17-59-34 3 33 2 69 2 105H25l-1-265h48c2 10 0 23 3 31 11-24 29-35 60-35zM114-30c33 0 39-31 40-66 0-38-9-64-40-64-56 0-55 130 0 130" id="s"/><path fill="#fff" d="M110-194c64 0 96 36 96 99 0 64-35 99-97 99-61 0-95-36-95-99 0-62 34-99 96-99zm-1 164c35 0 45-28 45-65 0-40-10-65-43-65-34 0-45 26-45 65 0 36 10 65 43 65" id="t"/><path fill="#fff" d="M190-63c-7 42-38 67-86 67-59 0-84-38-90-98-12-110 154-137 174-36l-49 2c-2-19-15-32-35-32-30 0-35 28-38 64-6 74 65 87 74 30" id="u"/><path fill="#fff" d="M137-138c1-29-70-34-71-4 15 46 118 7 119 86 1 83-164 76-172 9l43-7c4 19 20 25 44 25 33 8 57-30 24-41C81-84 22-81 20-136c-2-80 154-74 161-7" id="v"/><path fill="#fff" d="M195-6C206 82 75 100 31 46c-4-6-6-13-8-21l49-6c3 16 16 24 34 25 40 0 42-37 40-79-11 22-30 35-61 35-53 0-70-43-70-97 0-56 18-96 73-97 30 0 46 14 59 34l2-30h47zm-90-29c32 0 41-27 41-63 0-35-9-62-40-62-32 0-39 29-40 63 0 36 9 62 39 62" id="w"/><g id="c"><use transform="matrix(0.13580246913580238,0,0,0.13580246913580238,0,0)" xlink:href="#s"/><use transform="matrix(0.13580246913580238,0,0,0.13580246913580238,29.74074074074072,0)" xlink:href="#k"/><use transform="matrix(0.13580246913580238,0,0,0.13580246913580238,48.75308641975305,0)" xlink:href="#t"/><use transform="matrix(0.13580246913580238,0,0,0.13580246913580238,78.49382716049377,0)" xlink:href="#u"/><use transform="matrix(0.13580246913580238,0,0,0.13580246913580238,105.65432098765424,0)" xlink:href="#i"/><use transform="matrix(0.13580246913580238,0,0,0.13580246913580238,132.81481481481472,0)" xlink:href="#v"/><use transform="matrix(0.13580246913580238,0,0,0.13580246913580238,159.9753086419752,0)" xlink:href="#v"/><use transform="matrix(0.13580246913580238,0,0,0.13580246913580238,187.13580246913568,0)" xlink:href="#o"/><use transform="matrix(0.13580246913580238,0,0,0.13580246913580238,200.7160493827159,0)" xlink:href="#r"/><use transform="matrix(0.13580246913580238,0,0,0.13580246913580238,230.45679012345664,0)" xlink:href="#w"/></g><path fill="#fff7a1" d="M24 0v-248h195v40H76v63h132v40H76v65h150V0H24" id="x"/><path fill="#fff7a1" d="M128 0H69L1-190h53L99-40l48-150h52" id="y"/><path fill="#fff7a1" d="M185-48c-13 30-37 53-82 52C43 2 14-33 14-96s30-98 90-98c62 0 83 45 84 108H66c0 31 8 55 39 56 18 0 30-7 34-22zm-45-69c5-46-57-63-70-21-2 6-4 13-4 21h74" id="z"/><path fill="#fff7a1" d="M135-194c87-1 58 113 63 194h-50c-7-57 23-157-34-157-59 0-34 97-39 157H25l-1-190h47c2 12-1 28 3 38 12-26 28-41 61-42" id="A"/><path fill="#fff7a1" d="M115-3C79 11 28 4 28-45v-112H4v-33h27l15-45h31v45h36v33H77v99c-1 23 16 31 38 25v30" id="B"/><path fill="#fff7a1" d="M14-72v-43h91v43H14" id="C"/><path fill="#fff7a1" d="M24-248c120-7 223 5 221 122C244-46 201 0 124 0H24v-248zM76-40c74 7 117-18 117-86 0-67-45-88-117-82v168" id="D"/><path fill="#fff7a1" d="M135-150c-39-12-60 13-60 57V0H25l-1-190h47c2 13-1 29 3 40 6-28 27-53 61-41v41" id="E"/><path fill="#fff7a1" d="M25-224v-37h50v37H25zM25 0v-190h50V0H25" id="F"/><g id="d"><use transform="matrix(0.13580246913580238,0,0,0.13580246913580238,0,0)" xlink:href="#x"/><use transform="matrix(0.13580246913580238,0,0,0.13580246913580238,32.592592592592574,0)" xlink:href="#y"/><use transform="matrix(0.13580246913580238,0,0,0.13580246913580238,59.753086419753046,0)" xlink:href="#z"/><use transform="matrix(0.13580246913580238,0,0,0.13580246913580238,86.91358024691353,0)" xlink:href="#A"/><use transform="matrix(0.13580246913580238,0,0,0.13580246913580238,116.65432098765424,0)" xlink:href="#B"/><use transform="matrix(0.13580246913580238,0,0,0.13580246913580238,132.81481481481472,0)" xlink:href="#C"/><use transform="matrix(0.13580246913580238,0,0,0.13580246913580238,148.9753086419752,0)" xlink:href="#D"/><use transform="matrix(0.13580246913580238,0,0,0.13580246913580238,184.14814814814804,0)" xlink:href="#E"/><use transform="matrix(0.13580246913580238,0,0,0.13580246913580238,203.16049382716034,0)" xlink:href="#F"/><use transform="matrix(0.13580246913580238,0,0,0.13580246913580238,216.74074074074056,0)" xlink:href="#y"/><use transform="matrix(0.13580246913580238,0,0,0.13580246913580238,243.90123456790104,0)" xlink:href="#z"/><use transform="matrix(0.13580246913580238,0,0,0.13580246913580238,271.0617283950615,0)" xlink:href="#A"/></g><path fill="#fff7a1" d="M137-138c1-29-70-34-71-4 15 46 118 7 119 86 1 83-164 76-172 9l43-7c4 19 20 25 44 25 33 8 57-30 24-41C81-84 22-81 20-136c-2-80 154-74 161-7" id="G"/><path fill="#fff7a1" d="M195-6C206 82 75 100 31 46c-4-6-6-13-8-21l49-6c3 16 16 24 34 25 40 0 42-37 40-79-11 22-30 35-61 35-53 0-70-43-70-97 0-56 18-96 73-97 30 0 46 14 59 34l2-30h47zm-90-29c32 0 41-27 41-63 0-35-9-62-40-62-32 0-39 29-40 63 0 36 9 62 39 62" id="H"/><g id="e"><use transform="matrix(0.13580246913580238,0,0,0.13580246913580238,0,0)" xlink:href="#D"/><use transform="matrix(0.13580246913580238,0,0,0.13580246913580238,35.172839506172814,0)" xlink:href="#z"/><use transform="matrix(0.13580246913580238,0,0,0.13580246913580238,62.333333333333286,0)" xlink:href="#G"/><use transform="matrix(0.13580246913580238,0,0,0.13580246913580238,89.49382716049377,0)" xlink:href="#F"/><use transform="matrix(0.13580246913580238,0,0,0.13580246913580238,103.074074074074,0)" xlink:href="#H"/><use transform="matrix(0.13580246913580238,0,0,0.13580246913580238,132.81481481481472,0)" xlink:href="#A"/></g><path fill="#fff" d="M182-130c37 4 62 22 62 59C244 23 116-4 24 0v-248c84 5 203-23 205 63 0 31-19 50-47 55zM76-148c40-3 101 13 101-30 0-44-60-28-101-31v61zm0 110c48-3 116 14 116-37 0-48-69-32-116-35v72" id="I"/><g id="f"><use transform="matrix(0.13580246913580238,0,0,0.13580246913580238,0,0)" xlink:href="#I"/><use transform="matrix(0.13580246913580238,0,0,0.13580246913580238,35.172839506172814,0)" xlink:href="#o"/><use transform="matrix(0.13580246913580238,0,0,0.13580246913580238,48.75308641975305,0)" xlink:href="#w"/></g><path fill="#fff" d="M24-248c120-7 223 5 221 122C244-46 201 0 124 0H24v-248zM76-40c74 7 117-18 117-86 0-67-45-88-117-82v168" id="J"/><g id="g"><use transform="matrix(0.13580246913580238,0,0,0.13580246913580238,0,0)" xlink:href="#J"/><use transform="matrix(0.13580246913580238,0,0,0.13580246913580238,35.172839506172814,0)" xlink:href="#j"/><use transform="matrix(0.13580246913580238,0,0,0.13580246913580238,62.333333333333286,0)" xlink:href="#n"/><use transform="matrix(0.13580246913580238,0,0,0.13580246913580238,78.49382716049377,0)" xlink:href="#j"/></g></defs></g></svg>