<svg xmlns="http://www.w3.org/2000/svg" xmlns:lucid="lucid" width="1071" height="907"><g lucid:page-tab-id="7gKQSY66nKAV"><path d="M240 170c0 49.7-40.3 90-90 90s-90-40.3-90-90 40.3-90 90-90 90 40.3 90 90zM520 350c0 49.7-40.3 90-90 90s-90-40.3-90-90 40.3-90 90-90 90 40.3 90 90zM760 110c0 49.7-40.3 90-90 90s-90-40.3-90-90 40.3-90 90-90 90 40.3 90 90zM260 588.86c0 49.7-40.3 90-90 90s-90-40.3-90-90 40.3-90 90-90 90 40.3 90 90zM580 790c0 49.7-40.3 90-90 90s-90-40.3-90-90 40.3-90 90-90 90 40.3 90 90zM800 530c0 49.7-40.3 90-90 90s-90-40.3-90-90 40.3-90 90-90 90 40.3 90 90zM1040 291.14c0 49.7-40.3 90-90 90s-90-40.3-90-90 40.3-90 90-90 90 40.3 90 90z" stroke="#49c1a1" stroke-width="2" fill="#49c1a1" fill-opacity=".4"/><path d="M243.95 214.8a3 3 0 0 1 4.17-.77l71.47 49.6a3 3 0 0 0 4.17-.74l5.13-7.4a1.15 1.15 0 0 1 2.1.5l4.3 34.1a3.33 3.33 0 0 1-2.53 3.66l-33.45 7.87a1.15 1.15 0 0 1-1.2-1.78l5.12-7.4a3 3 0 0 0-.75-4.16L231 238.67a3 3 0 0 1-.76-4.18zM523.95 395.93a3 3 0 0 1 4.17-.75l71.47 49.6a3 3 0 0 0 4.17-.75l5.13-7.4a1.15 1.15 0 0 1 2.1.52l4.3 34.1a3.33 3.33 0 0 1-2.53 3.65l-33.45 7.87a1.15 1.15 0 0 1-1.2-1.77l5.12-7.4a3 3 0 0 0-.75-4.17L511 419.83a3 3 0 0 1-.76-4.18zM485.45 257.58a3 3 0 0 1 0-4.24l61.52-61.52a3 3 0 0 0 0-4.24l-6.37-6.37a1.15 1.15 0 0 1 .88-1.95l34.3 1.8a3.33 3.33 0 0 1 3.16 3.16l1.8 34.32a1.15 1.15 0 0 1-1.95.88l-6.38-6.37a3 3 0 0 0-4.24 0l-61.52 61.52a3 3 0 0 1-4.24 0zM252.73 497.58a3 3 0 0 1 0-4.24l61.52-61.52a3 3 0 0 0 0-4.24l-6.37-6.37a1.15 1.15 0 0 1 .88-1.95l34.3 1.8a3.33 3.33 0 0 1 3.16 3.16l1.8 34.32a1.15 1.15 0 0 1-1.95.88l-6.37-6.37a3 3 0 0 0-4.24 0l-61.52 61.52a3 3 0 0 1-4.24 0zM772.73 437.58a3 3 0 0 1 0-4.24l61.52-61.52a3 3 0 0 0 0-4.24l-6.37-6.37a1.15 1.15 0 0 1 .88-1.95l34.3 1.8a3.33 3.33 0 0 1 3.16 3.16l1.8 34.32a1.15 1.15 0 0 1-1.95.88l-6.37-6.37a3 3 0 0 0-4.24 0l-61.52 61.52a3 3 0 0 1-4.24 0zM650.2 627.44a3 3 0 0 1 .3 4.23l-56.83 65.87a3 3 0 0 0 .3 4.23l6.82 5.88a1.15 1.15 0 0 1-.73 2.02l-34.36.72a3.33 3.33 0 0 1-3.36-2.92l-4.32-34.1a1.15 1.15 0 0 1 1.9-1l6.8 5.87a3 3 0 0 0 4.23-.3l56.84-65.88a3 3 0 0 1 4.22-.3zM283.95 653.2a3 3 0 0 1 4.17-.74l71.47 49.6a3 3 0 0 0 4.17-.75l5.13-7.4a1.15 1.15 0 0 1 2.1.53l4.3 34.08a3.33 3.33 0 0 1-2.53 3.68l-33.45 7.87a1.15 1.15 0 0 1-1.2-1.77l5.12-7.4a3 3 0 0 0-.75-4.17L271 677.1a3 3 0 0 1-.76-4.17z" stroke="#49c1a1" fill="#fff"/></g></svg>